<?xml version="1.0" encoding="UTF-8" standalone="no"?>
<!DOCTYPE svg PUBLIC "-//W3C//DTD SVG 1.1//EN" "http://www.w3.org/Graphics/SVG/1.1/DTD/svg11.dtd">
<svg width="100%" height="100%" viewBox="0 0 502 793" version="1.1" xmlns="http://www.w3.org/2000/svg" xmlns:xlink="http://www.w3.org/1999/xlink" xml:space="preserve" xmlns:serif="http://www.serif.com/" style="fill-rule:evenodd;clip-rule:evenodd;stroke-linejoin:round;stroke-miterlimit:2;">
    <g transform="matrix(1,0,0,1,-369.059,-212.485)">
        <g transform="matrix(1,0,0,1,44.9612,49.6124)">
            <path d="M650.631,510.759C664.49,510.759 675.725,499.525 675.725,485.667C675.725,471.807 664.49,460.573 650.631,460.573C636.773,460.573 625.538,471.807 625.538,485.667C625.538,499.525 636.773,510.759 650.631,510.759Z" style="fill:rgb(204,246,86);fill-rule:nonzero;"/>
            <path d="M650.631,593.482C664.49,593.482 675.725,582.248 675.725,568.388C675.725,554.53 664.49,543.295 650.631,543.295C636.773,543.295 625.538,554.53 625.538,568.388C625.538,582.248 636.773,593.482 650.631,593.482Z" style="fill:rgb(242,48,171);fill-rule:nonzero;"/>
            <path d="M650.631,672.587C664.49,672.587 675.725,661.353 675.725,647.494C675.725,633.635 664.49,622.401 650.631,622.401C636.773,622.401 625.538,633.635 625.538,647.494C625.538,661.353 636.773,672.587 650.631,672.587Z" style="fill:rgb(73,146,126);fill-rule:nonzero;"/>
            <path d="M494.492,835.925L464.104,834.267C421.579,834.267 387.105,797.339 387.105,751.787L387.105,616.368C387.105,613.833 389.16,611.777 391.695,611.777L459.514,611.777C462.049,611.777 464.104,613.833 464.104,616.368L464.104,749.095C464.104,771.912 471.659,794.085 485.589,812.157L498.413,828.354C500.915,831.513 498.516,836.145 494.492,835.925ZM825.287,188.295L811.264,165.467C809.816,162.948 806.576,162.118 804.09,163.623C733.574,206.301 689.99,283.36 689.99,366.018L689.99,729.985C689.99,744.819 687.691,759.182 683.434,772.719C675.013,799.489 654.633,821.119 627.825,829.415C620.838,831.577 613.14,832.981 604.737,833.218C603.898,833.242 603.066,833.253 602.24,833.253C561.975,833.255 529.635,799.893 529.635,759.627L529.635,568.273C529.635,565.417 527.321,563.104 524.467,563.104L329.266,563.104C326.412,563.104 324.098,565.417 324.098,568.273L324.098,729.821C324.098,789.277 346.94,846.717 388.698,889.042C431.183,932.102 487.964,955.837 548.393,955.837C608.819,955.837 665.598,932.104 708.083,889.045C749.844,846.722 772.688,789.281 772.688,729.823L739.252,372.657C736.862,290.377 766.564,226.534 825.287,188.295Z" style="fill-rule:nonzero;"/>
        </g>
    </g>
</svg>
